<?xml version="1.0" encoding="UTF-8" standalone="no"?>
<svg
   xmlns:dc="http://purl.org/dc/elements/1.1/"
   xmlns:cc="http://creativecommons.org/ns#"
   xmlns:rdf="http://www.w3.org/1999/02/22-rdf-syntax-ns#"
   xmlns:svg="http://www.w3.org/2000/svg"
   xmlns="http://www.w3.org/2000/svg"
   xmlns:sodipodi="http://sodipodi.sourceforge.net/DTD/sodipodi-0.dtd"
   xmlns:inkscape="http://www.inkscape.org/namespaces/inkscape"
   width="448.0007"
   height="448"
   viewBox="0 0 448.0007 448"
   version="1.1"
   id="svg1587"
   sodipodi:docname="logo-linkedin.svg"
   inkscape:version="0.92.4 5da689c313, 2019-01-14">
  <metadata
     id="metadata1593">
    <rdf:RDF>
      <cc:Work
         rdf:about="">
        <dc:format>image/svg+xml</dc:format>
        <dc:type
           rdf:resource="http://purl.org/dc/dcmitype/StillImage" />
      </cc:Work>
    </rdf:RDF>
  </metadata>
  <defs
     id="defs1591" />
  <sodipodi:namedview
     pagecolor="#ffffff"
     bordercolor="#666666"
     borderopacity="1"
     objecttolerance="10"
     gridtolerance="10"
     guidetolerance="10"
     inkscape:pageopacity="0"
     inkscape:pageshadow="2"
     inkscape:window-width="1358"
     inkscape:window-height="760"
     id="namedview1589"
     showgrid="false"
     inkscape:zoom="0.4609375"
     inkscape:cx="-127.45763"
     inkscape:cy="224"
     inkscape:window-x="2"
     inkscape:window-y="2"
     inkscape:window-maximized="0"
     inkscape:current-layer="svg1587" />
  <title
     id="title1583">ionicons-v5_logos</title>
  <path
     d="M 412.17,0 H 38.28 C 17.85,0 0,14.7 0,34.89 V 409.61 C 0,429.91 17.85,448 38.28,448 H 412.06 C 432.6,448 448,429.79 448,409.61 V 34.89 C 448.12,14.7 432.6,0 412.17,0 Z M 138.87,373.43 H 74.69 V 173.88 h 64.18 z M 109,143.54 h -0.46 C 88,143.54 74.7,128.25 74.7,109.11 c 0,-19.49 13.65,-34.42 34.65,-34.42 21,0 33.85,14.82 34.31,34.42 -0.01,19.14 -13.31,34.43 -34.66,34.43 z M 373.43,373.43 H 309.25 V 264.32 c 0,-26.14 -9.34,-44 -32.56,-44 -17.74,0 -28.24,12 -32.91,23.69 -1.75,4.2 -2.22,9.92 -2.22,15.76 V 373.43 H 177.38 V 173.88 h 64.18 v 27.77 c 9.34,-13.3 23.93,-32.44 57.88,-32.44 42.13,0 74,27.77 74,87.64 z"
     id="path1585"
     inkscape:connector-curvature="0"
     style="fill:#393045;fill-opacity:1" />
</svg>
