<?xml version="1.0" encoding="UTF-8" standalone="no"?>
<svg
   xmlns:dc="http://purl.org/dc/elements/1.1/"
   xmlns:cc="http://creativecommons.org/ns#"
   xmlns:rdf="http://www.w3.org/1999/02/22-rdf-syntax-ns#"
   xmlns:svg="http://www.w3.org/2000/svg"
   xmlns="http://www.w3.org/2000/svg"
   xmlns:sodipodi="http://sodipodi.sourceforge.net/DTD/sodipodi-0.dtd"
   xmlns:inkscape="http://www.inkscape.org/namespaces/inkscape"
   width="448.00284"
   height="448.0007"
   viewBox="0 0 448.00284 448.0007"
   version="1.1"
   id="svg2189"
   sodipodi:docname="logo-skype.svg"
   inkscape:version="0.92.4 5da689c313, 2019-01-14">
  <metadata
     id="metadata2195">
    <rdf:RDF>
      <cc:Work
         rdf:about="">
        <dc:format>image/svg+xml</dc:format>
        <dc:type
           rdf:resource="http://purl.org/dc/dcmitype/StillImage" />
      </cc:Work>
    </rdf:RDF>
  </metadata>
  <defs
     id="defs2193" />
  <sodipodi:namedview
     pagecolor="#ffffff"
     bordercolor="#666666"
     borderopacity="1"
     objecttolerance="10"
     gridtolerance="10"
     guidetolerance="10"
     inkscape:pageopacity="0"
     inkscape:pageshadow="2"
     inkscape:window-width="1358"
     inkscape:window-height="760"
     id="namedview2191"
     showgrid="false"
     inkscape:zoom="0.4609375"
     inkscape:cx="46.102362"
     inkscape:cy="224.00013"
     inkscape:window-x="2"
     inkscape:window-y="2"
     inkscape:window-maximized="0"
     inkscape:current-layer="svg2189" />
  <title
     id="title2185">ionicons-v5_logos</title>
  <path
     d="m 435.16067,271.60057 a 205.69,205.69 0 0 0 4.9,-45.15 c 0,-116.32 -95.69,-210.699995 -213.79,-210.699995 a 221.83,221.83 0 0 0 -36.52,3 123.58,123.58 0 0 0 -65.82,-18.750000456 C 55.550667,5.74544e-4 6.6709995e-4,54.720575 6.6709995e-4,122.15057 a 119.56,119.56 0 0 0 16.99999990005,61.85 211.16,211.16 0 0 0 -4.32,42.35 c 0,116.44 95.690003,210.7 213.670003,210.7 a 214,214 0 0 0 39.09,-3.5 125.45,125.45 0 0 0 58.63,14.45 c 68.5,0 123.93,-54.72 123.93,-122.15 a 118,118 0 0 0 -12.84,-54.25 z m -99.16,55.4 c -9.92,13.76 -24.51,24.73 -43.41,32.43 -18.9,7.7 -41.23,11.57 -66.9,11.57 -30.69,0 -56.36,-5.37 -76.55,-15.87 a 101,101 0 0 1 -35.24,-30.8 c -9.11,-12.83 -13.66,-25.66 -13.66,-38 0,-7.7 3,-14.35 8.87,-19.95 5.84,-5.37 13.42,-8.17 22.29,-8.17 7.35,0 13.65,2.1 18.79,6.42 4.9,4.08 9.1,10.15 12.48,18.08 a 108.09,108.09 0 0 0 12.33,21.44 q 6.32,8.22 17.86,13.65 c 7.82,3.62 18.2,5.48 31,5.48 17.62,0 32.09,-3.73 42.94,-11.08 10.74,-7.12 15.88,-15.75 15.88,-26.25 0,-8.28 -2.69,-14.82 -8.29,-19.95 -5.83,-5.37 -13.42,-9.57 -22.87,-12.37 -9.69,-3 -22.87,-6.18 -39.21,-9.56 -22.17,-4.67 -41,-10.27 -56,-16.57 -15.28,-6.42 -27.65,-15.4 -36.76,-26.48 -9.22,-11.32 -13.77,-25.55 -13.77,-42.24 a 67.86,67.86 0 0 1 14.47,-42.58 c 9.57,-12.25 23.46,-21.819995 41.55,-28.349995 17.74,-6.53 38.86,-9.8 62.66,-9.8 19.14,0 35.83,2.22 49.83,6.42 14,4.2 25.91,10.15 35.36,17.379995 9.45,7.23 16.34,14.93 20.77,23 4.43,8.07 6.66,16.22 6.66,24 0,7.46 -2.92,14.35 -8.76,20.3 a 29.65,29.65 0 0 1 -21.94,9.1 c -7.93,0 -14.12,-1.87 -18.43,-5.6 -4,-3.5 -8.17,-8.87 -12.72,-16.69 -5.37,-9.91 -11.79,-17.85 -19.14,-23.45 -7.24,-5.36 -19.14,-8.16 -35.71,-8.16 -15.29,0 -27.77,3 -37,9 -8.87,5.72 -13.19,12.37 -13.19,20.18 a 18.26,18.26 0 0 0 4.32,12.25 38.13,38.13 0 0 0 12.72,9.57 90.14,90.14 0 0 0 17.15,6.53 c 6,1.64 15.87,4.09 29.53,7.12 17.38,3.62 33.25,7.82 47.26,12.13 14.24,4.55 26.49,10 36.52,16.45 a 72.93,72.93 0 0 1 24.16,25.09 c 5.72,10 8.64,22.63 8.64,37.1 a 75.09,75.09 0 0 1 -14.49,47.23 z"
     id="path2187"
     inkscape:connector-curvature="0"
     style="fill:#393045;fill-opacity:1" />
</svg>
