<?xml version="1.0" encoding="UTF-8" standalone="no"?>
<svg
   xmlns:dc="http://purl.org/dc/elements/1.1/"
   xmlns:cc="http://creativecommons.org/ns#"
   xmlns:rdf="http://www.w3.org/1999/02/22-rdf-syntax-ns#"
   xmlns:svg="http://www.w3.org/2000/svg"
   xmlns="http://www.w3.org/2000/svg"
   xmlns:sodipodi="http://sodipodi.sourceforge.net/DTD/sodipodi-0.dtd"
   xmlns:inkscape="http://www.inkscape.org/namespaces/inkscape"
   width="448"
   height="448"
   viewBox="0 0 448 448"
   version="1.1"
   id="svg890"
   sodipodi:docname="logo-facebook.svg"
   inkscape:version="0.92.4 5da689c313, 2019-01-14">
  <metadata
     id="metadata896">
    <rdf:RDF>
      <cc:Work
         rdf:about="">
        <dc:format>image/svg+xml</dc:format>
        <dc:type
           rdf:resource="http://purl.org/dc/dcmitype/StillImage" />
      </cc:Work>
    </rdf:RDF>
  </metadata>
  <defs
     id="defs894" />
  <sodipodi:namedview
     pagecolor="#ffffff"
     bordercolor="#666666"
     borderopacity="1"
     objecttolerance="10"
     gridtolerance="10"
     guidetolerance="10"
     inkscape:pageopacity="0"
     inkscape:pageshadow="2"
     inkscape:window-width="1358"
     inkscape:window-height="760"
     id="namedview892"
     showgrid="false"
     inkscape:zoom="1.078125"
     inkscape:cx="224"
     inkscape:cy="224"
     inkscape:window-x="2"
     inkscape:window-y="2"
     inkscape:window-maximized="1"
     inkscape:current-layer="svg890" />
  <title
     id="title886">ionicons-v5_logos</title>
  <path
     d="M 423.27,0 H 24.73 A 24.74,24.74 0 0 0 0,24.73 V 423.27 A 24.74,24.74 0 0 0 24.73,448 H 224 V 272 H 170.45 V 208 H 224 v -51 c 0,-57.86 40.13,-89.36 91.82,-89.36 24.73,0 51.33,1.86 57.51,2.68 v 60.43 h -41.18 c -28.12,0 -33.48,13.3 -33.48,32.9 V 208 h 67 l -8.75,64 h -58.25 v 176 h 124.6 A 24.74,24.74 0 0 0 448,423.27 V 24.73 A 24.74,24.74 0 0 0 423.27,0 Z"
     id="path888"
     inkscape:connector-curvature="0"
     style="fill:#393045;fill-opacity:1" />
</svg>
